# Blender v2.77 (sub 0) OBJ File: ''
# www.blender.org
mtllib bullet.mtl
o Sphere
v -0.191342 0.461940 0.000000
v -0.353553 0.353553 0.000000
v -0.461940 0.191342 0.000000
v -0.500000 -0.000000 0.000000
v -0.461940 -0.191342 0.000000
v -0.353553 -0.353553 0.000000
v -0.191342 -0.461940 0.000000
v -0.176777 0.461940 -0.073223
v -0.326641 0.353553 -0.135299
v -0.426777 0.191342 -0.176777
v -0.461940 -0.000000 -0.191342
v -0.426777 -0.191342 -0.176777
v -0.326641 -0.353553 -0.135299
v -0.176777 -0.461940 -0.073223
v -0.135299 0.461940 -0.135299
v -0.250000 0.353553 -0.250000
v -0.326641 0.191342 -0.326641
v -0.353553 -0.000000 -0.353553
v -0.326641 -0.191342 -0.326641
v -0.250000 -0.353553 -0.250000
v -0.135299 -0.461940 -0.135299
v -0.000000 -0.500000 0.000000
v -0.073223 0.461940 -0.176777
v -0.135299 0.353553 -0.326641
v -0.176777 0.191342 -0.426777
v -0.191342 -0.000000 -0.461940
v -0.176777 -0.191342 -0.426777
v -0.135299 -0.353553 -0.326641
v -0.073223 -0.461940 -0.176777
v -0.000000 0.461940 -0.191342
v -0.000000 0.353553 -0.353553
v -0.000000 0.191342 -0.461940
v -0.000000 -0.000000 -0.500000
v -0.000000 -0.191342 -0.461940
v -0.000000 -0.353553 -0.353553
v -0.000000 -0.461940 -0.191342
v 0.073223 0.461940 -0.176777
v 0.135299 0.353553 -0.326641
v 0.176777 0.191342 -0.426777
v 0.191342 -0.000000 -0.461940
v 0.176777 -0.191342 -0.426777
v 0.135299 -0.353553 -0.326641
v 0.073223 -0.461940 -0.176777
v -0.000000 0.500000 0.000000
v 0.135299 0.461940 -0.135299
v 0.250000 0.353553 -0.250000
v 0.326641 0.191342 -0.326641
v 0.353553 -0.000000 -0.353553
v 0.326641 -0.191342 -0.326641
v 0.250000 -0.353553 -0.250000
v 0.135299 -0.461940 -0.135299
v 0.176777 0.461940 -0.073223
v 0.326641 0.353553 -0.135299
v 0.426777 0.191342 -0.176777
v 0.461940 -0.000000 -0.191342
v 0.426777 -0.191342 -0.176777
v 0.326641 -0.353553 -0.135299
v 0.176777 -0.461940 -0.073223
v 0.191342 0.461940 0.000000
v 0.353553 0.353553 0.000000
v 0.461940 0.191342 0.000000
v 0.500000 -0.000000 0.000000
v 0.461940 -0.191342 0.000000
v 0.353553 -0.353553 0.000000
v 0.191342 -0.461940 0.000000
v 0.176777 0.461940 0.073223
v 0.326640 0.353553 0.135299
v 0.426776 0.191342 0.176777
v 0.461939 -0.000000 0.191342
v 0.426776 -0.191342 0.176777
v 0.326640 -0.353553 0.135299
v 0.176777 -0.461940 0.073223
v 0.135299 0.461940 0.135299
v 0.250000 0.353553 0.250000
v 0.326640 0.191342 0.326641
v 0.353553 -0.000000 0.353553
v 0.326640 -0.191342 0.326641
v 0.250000 -0.353553 0.250000
v 0.135299 -0.461940 0.135299
v 0.073223 0.461940 0.176777
v 0.135299 0.353553 0.326641
v 0.176776 0.191342 0.426777
v 0.191341 -0.000000 0.461940
v 0.176776 -0.191342 0.426777
v 0.135299 -0.353553 0.326641
v 0.073223 -0.461940 0.176777
v -0.000000 0.461940 0.191342
v -0.000000 0.353553 0.353553
v -0.000000 0.191342 0.461940
v -0.000000 -0.000000 0.500000
v -0.000000 -0.191342 0.461940
v -0.000000 -0.353553 0.353553
v -0.000000 -0.461940 0.191342
v -0.073223 0.461940 0.176777
v -0.135299 0.353553 0.326641
v -0.176777 0.191342 0.426776
v -0.191342 -0.000000 0.461939
v -0.176777 -0.191342 0.426776
v -0.135299 -0.353553 0.326641
v -0.073223 -0.461940 0.176777
v -0.135299 0.461940 0.135299
v -0.250000 0.353553 0.250000
v -0.326641 0.191342 0.326640
v -0.353554 -0.000000 0.353553
v -0.326641 -0.191342 0.326640
v -0.250000 -0.353553 0.250000
v -0.135299 -0.461940 0.135299
v -0.176777 0.461940 0.073223
v -0.326641 0.353553 0.135299
v -0.426777 0.191342 0.176776
v -0.461940 -0.000000 0.191341
v -0.426777 -0.191342 0.176776
v -0.326641 -0.353553 0.135299
v -0.176777 -0.461940 0.073223
vn -0.5522 0.8264 -0.1098
vn -0.5522 -0.8264 -0.1098
vn -0.9626 -0.1915 -0.1915
vn -0.8203 0.5481 -0.1632
vn -0.1949 0.9800 -0.0388
vn -0.1949 -0.9800 -0.0388
vn -0.8203 -0.5481 -0.1632
vn -0.9626 0.1915 -0.1915
vn -0.8161 -0.1915 -0.5453
vn -0.6954 0.5481 -0.4647
vn -0.1653 0.9800 -0.1104
vn -0.1653 -0.9800 -0.1104
vn -0.6954 -0.5481 -0.4647
vn -0.8161 0.1915 -0.5453
vn -0.4681 0.8264 -0.3128
vn -0.4681 -0.8264 -0.3128
vn -0.1104 -0.9800 -0.1653
vn -0.4647 -0.5481 -0.6954
vn -0.5453 0.1915 -0.8161
vn -0.3128 0.8264 -0.4681
vn -0.3128 -0.8264 -0.4681
vn -0.5453 -0.1915 -0.8161
vn -0.4647 0.5481 -0.6954
vn -0.1104 0.9800 -0.1653
vn -0.1915 0.1915 -0.9626
vn -0.1098 0.8264 -0.5522
vn -0.1098 -0.8264 -0.5522
vn -0.1915 -0.1915 -0.9626
vn -0.1632 0.5481 -0.8203
vn -0.0388 0.9800 -0.1949
vn -0.0388 -0.9800 -0.1949
vn -0.1632 -0.5481 -0.8203
vn 0.1098 -0.8264 -0.5522
vn 0.1915 -0.1915 -0.9626
vn 0.1632 0.5481 -0.8203
vn 0.0388 0.9800 -0.1949
vn 0.0388 -0.9800 -0.1949
vn 0.1632 -0.5481 -0.8203
vn 0.1915 0.1915 -0.9626
vn 0.1098 0.8264 -0.5522
vn 0.4647 0.5481 -0.6954
vn 0.1104 0.9800 -0.1653
vn 0.1104 -0.9800 -0.1653
vn 0.4647 -0.5481 -0.6954
vn 0.5453 0.1915 -0.8161
vn 0.3128 0.8264 -0.4681
vn 0.3128 -0.8264 -0.4681
vn 0.5453 -0.1915 -0.8161
vn 0.1653 -0.9800 -0.1104
vn 0.6954 -0.5481 -0.4647
vn 0.8161 0.1915 -0.5453
vn 0.4681 0.8264 -0.3128
vn 0.4681 -0.8264 -0.3128
vn 0.8161 -0.1915 -0.5453
vn 0.6954 0.5481 -0.4647
vn 0.1653 0.9800 -0.1104
vn 0.5522 0.8264 -0.1098
vn 0.5522 -0.8264 -0.1098
vn 0.9626 -0.1915 -0.1915
vn 0.8203 0.5481 -0.1632
vn 0.1949 0.9800 -0.0388
vn 0.1949 -0.9800 -0.0388
vn 0.8203 -0.5481 -0.1632
vn 0.9626 0.1915 -0.1915
vn 0.5522 -0.8264 0.1098
vn 0.9626 -0.1915 0.1915
vn 0.8203 0.5481 0.1632
vn 0.1949 0.9800 0.0388
vn 0.1949 -0.9800 0.0388
vn 0.8203 -0.5481 0.1632
vn 0.9626 0.1915 0.1915
vn 0.5522 0.8264 0.1098
vn 0.1653 0.9800 0.1104
vn 0.1653 -0.9800 0.1104
vn 0.6954 -0.5481 0.4647
vn 0.8161 0.1915 0.5453
vn 0.4681 0.8264 0.3128
vn 0.4681 -0.8264 0.3128
vn 0.8161 -0.1915 0.5453
vn 0.6954 0.5481 0.4647
vn 0.4647 -0.5481 0.6954
vn 0.5453 0.1915 0.8161
vn 0.3128 0.8264 0.4681
vn 0.3128 -0.8264 0.4681
vn 0.5453 -0.1915 0.8161
vn 0.4647 0.5481 0.6954
vn 0.1104 0.9800 0.1653
vn 0.1104 -0.9800 0.1653
vn 0.1098 -0.8264 0.5522
vn 0.1915 -0.1915 0.9626
vn 0.1632 0.5481 0.8203
vn 0.0388 0.9800 0.1949
vn 0.0388 -0.9800 0.1949
vn 0.1632 -0.5481 0.8203
vn 0.1915 0.1915 0.9626
vn 0.1098 0.8264 0.5522
vn -0.1915 -0.1915 0.9626
vn -0.1632 0.5481 0.8203
vn -0.0388 0.9800 0.1949
vn -0.0388 -0.9800 0.1949
vn -0.1632 -0.5481 0.8203
vn -0.1915 0.1915 0.9626
vn -0.1098 0.8264 0.5522
vn -0.1098 -0.8264 0.5522
vn -0.1104 -0.9800 0.1653
vn -0.4647 -0.5481 0.6954
vn -0.5453 0.1915 0.8161
vn -0.3128 0.8264 0.4681
vn -0.3128 -0.8264 0.4681
vn -0.5453 -0.1915 0.8161
vn -0.4647 0.5481 0.6954
vn -0.1104 0.9800 0.1653
vn -0.8161 0.1915 0.5453
vn -0.4681 0.8264 0.3128
vn -0.4681 -0.8264 0.3128
vn -0.8161 -0.1915 0.5453
vn -0.6954 0.5481 0.4647
vn -0.1653 0.9800 0.1104
vn -0.1653 -0.9800 0.1104
vn -0.6954 -0.5481 0.4647
vn -0.5522 -0.8264 0.1098
vn -0.9626 -0.1915 0.1915
vn -0.8203 0.5481 0.1632
vn -0.1949 0.9800 0.0388
vn -0.1949 -0.9800 0.0388
vn -0.8203 -0.5481 0.1632
vn -0.9626 0.1915 0.1915
vn -0.5522 0.8264 0.1098
usemtl None
s off
f 2//1 1//1 8//1 9//1
f 7//2 6//2 13//2 14//2
f 5//3 4//3 11//3 12//3
f 3//4 2//4 9//4 10//4
f 1//5 44//5 8//5
f 22//6 7//6 14//6
f 6//7 5//7 12//7 13//7
f 4//8 3//8 10//8 11//8
f 12//9 11//9 18//9 19//9
f 10//10 9//10 16//10 17//10
f 8//11 44//11 15//11
f 22//12 14//12 21//12
f 13//13 12//13 19//13 20//13
f 11//14 10//14 17//14 18//14
f 9//15 8//15 15//15 16//15
f 14//16 13//16 20//16 21//16
f 22//17 21//17 29//17
f 20//18 19//18 27//18 28//18
f 18//19 17//19 25//19 26//19
f 16//20 15//20 23//20 24//20
f 21//21 20//21 28//21 29//21
f 19//22 18//22 26//22 27//22
f 17//23 16//23 24//23 25//23
f 15//24 44//24 23//24
f 26//25 25//25 32//25 33//25
f 24//26 23//26 30//26 31//26
f 29//27 28//27 35//27 36//27
f 27//28 26//28 33//28 34//28
f 25//29 24//29 31//29 32//29
f 23//30 44//30 30//30
f 22//31 29//31 36//31
f 28//32 27//32 34//32 35//32
f 36//33 35//33 42//33 43//33
f 34//34 33//34 40//34 41//34
f 32//35 31//35 38//35 39//35
f 30//36 44//36 37//36
f 22//37 36//37 43//37
f 35//38 34//38 41//38 42//38
f 33//39 32//39 39//39 40//39
f 31//40 30//40 37//40 38//40
f 39//41 38//41 46//41 47//41
f 37//42 44//42 45//42
f 22//43 43//43 51//43
f 42//44 41//44 49//44 50//44
f 40//45 39//45 47//45 48//45
f 38//46 37//46 45//46 46//46
f 43//47 42//47 50//47 51//47
f 41//48 40//48 48//48 49//48
f 22//49 51//49 58//49
f 50//50 49//50 56//50 57//50
f 48//51 47//51 54//51 55//51
f 46//52 45//52 52//52 53//52
f 51//53 50//53 57//53 58//53
f 49//54 48//54 55//54 56//54
f 47//55 46//55 53//55 54//55
f 45//56 44//56 52//56
f 53//57 52//57 59//57 60//57
f 58//58 57//58 64//58 65//58
f 56//59 55//59 62//59 63//59
f 54//60 53//60 60//60 61//60
f 52//61 44//61 59//61
f 22//62 58//62 65//62
f 57//63 56//63 63//63 64//63
f 55//64 54//64 61//64 62//64
f 65//65 64//65 71//65 72//65
f 63//66 62//66 69//66 70//66
f 61//67 60//67 67//67 68//67
f 59//68 44//68 66//68
f 22//69 65//69 72//69
f 64//70 63//70 70//70 71//70
f 62//71 61//71 68//71 69//71
f 60//72 59//72 66//72 67//72
f 66//73 44//73 73//73
f 22//74 72//74 79//74
f 71//75 70//75 77//75 78//75
f 69//76 68//76 75//76 76//76
f 67//77 66//77 73//77 74//77
f 72//78 71//78 78//78 79//78
f 70//79 69//79 76//79 77//79
f 68//80 67//80 74//80 75//80
f 78//81 77//81 84//81 85//81
f 76//82 75//82 82//82 83//82
f 74//83 73//83 80//83 81//83
f 79//84 78//84 85//84 86//84
f 77//85 76//85 83//85 84//85
f 75//86 74//86 81//86 82//86
f 73//87 44//87 80//87
f 22//88 79//88 86//88
f 86//89 85//89 92//89 93//89
f 84//90 83//90 90//90 91//90
f 82//91 81//91 88//91 89//91
f 80//92 44//92 87//92
f 22//93 86//93 93//93
f 85//94 84//94 91//94 92//94
f 83//95 82//95 89//95 90//95
f 81//96 80//96 87//96 88//96
f 91//97 90//97 97//97 98//97
f 89//98 88//98 95//98 96//98
f 87//99 44//99 94//99
f 22//100 93//100 100//100
f 92//101 91//101 98//101 99//101
f 90//102 89//102 96//102 97//102
f 88//103 87//103 94//103 95//103
f 93//104 92//104 99//104 100//104
f 22//105 100//105 107//105
f 99//106 98//106 105//106 106//106
f 97//107 96//107 103//107 104//107
f 95//108 94//108 101//108 102//108
f 100//109 99//109 106//109 107//109
f 98//110 97//110 104//110 105//110
f 96//111 95//111 102//111 103//111
f 94//112 44//112 101//112
f 104//113 103//113 110//113 111//113
f 102//114 101//114 108//114 109//114
f 107//115 106//115 113//115 114//115
f 105//116 104//116 111//116 112//116
f 103//117 102//117 109//117 110//117
f 101//118 44//118 108//118
f 22//119 107//119 114//119
f 106//120 105//120 112//120 113//120
f 114//121 113//121 6//121 7//121
f 112//122 111//122 4//122 5//122
f 110//123 109//123 2//123 3//123
f 108//124 44//124 1//124
f 22//125 114//125 7//125
f 113//126 112//126 5//126 6//126
f 111//127 110//127 3//127 4//127
f 109//128 108//128 1//128 2//128
